PathFileType	4	(X/Y/Z)	C:/Users/opensim2020/Desktop/walking_exp_matlab/subject01_walking04_static.trc																																																																																																																															
DataRate	CameraRate	NumFrames	NumMarkers	Units	OrigDataRate	OrigDataStartFrame	OrigNumFrames																																																																																																																											
100	100	8	43	mm	100	201	321																																																																																																																											
Frame#	Time	LFHD			RFHD			LBHD			RBHD			C7			T10			CLAV			STRN			RBAK			LSHO			LUPA			LELB			LFRM			LWRA			LWRB			LFIN			RSHO			RUPA			RELB			RFRM			RWRA			RWRB			RFIN			LASI			RASI			LPSI			RPSI			LTHI			LKNE			LTIB			LANK			LHEE			LTOE			RTHI			RKNE			RTIB			RANK			RHEE			RTOE			*39			*40			*41			*42		
		X1	Y1	Z1	X2	Y2	Z2	X3	Y3	Z3	X4	Y4	Z4	X5	Y5	Z5	X6	Y6	Z6	X7	Y7	Z7	X8	Y8	Z8	X9	Y9	Z9	X10	Y10	Z10	X11	Y11	Z11	X12	Y12	Z12	X13	Y13	Z13	X14	Y14	Z14	X15	Y15	Z15	X16	Y16	Z16	X17	Y17	Z17	X18	Y18	Z18	X19	Y19	Z19	X20	Y20	Z20	X21	Y21	Z21	X22	Y22	Z22	X23	Y23	Z23	X24	Y24	Z24	X25	Y25	Z25	X26	Y26	Z26	X27	Y27	Z27	X28	Y28	Z28	X29	Y29	Z29	X30	Y30	Z30	X31	Y31	Z31	X32	Y32	Z32	X33	Y33	Z33	X34	Y34	Z34	X35	Y35	Z35	X36	Y36	Z36	X37	Y37	Z37	X38	Y38	Z38	X39	Y39	Z39	X40	Y40	Z40	X41	Y41	Z41	X42	Y42	Z42	X43	Y43	Z43
																																																																																																																																		
201	2	-15.39022	1684.71985	-403.41956	-12.39069	1694.07202	-289.35413	-113.17059	1606.23987	-404.17346	-113.94103	1614.30139	-283.74789	-116.79392	1437.29077	-356.57178	-140.97592	1143.31201	-347.37967	29.80222	1375.56482	-345.21524	79.03936	1221.10425	-345.23224	-167.77347	1241.32373	-278.54318	-21.33366	1399.08228	-510.02948	-41.30061	1222.11975	-605.4895	-50.80909	1073.9137	-628.68073	0.62374	965.89069	-638.29761	71.47956	854.23975	-591.75568	31.11145	847.78961	-636.39941	83.11895	780.81665	-625.35614	-40.61083	1400.52173	-198.76353	-92.27721	1210.0127	-83.71989	-77.18532	1086.37024	-58.08565	-29.65332	969.3689	-39.26159	39.24791	855.21552	-91.32368	19.37602	856.35596	-36.81646	54.03292	779.58221	-54.88634	44.98641	937.98907	-445.84598	33.50053	941.8371	-228.71484	-146.52934	952.01508	-405.01572	-152.92712	957.33173	-262.31223	-5.34115	606.83142	-518.10217	-26.40185	472.54507	-508.33224	-77.08643	292.90833	-530.81549	-84.89756	71.48234	-488.5098	-124.17191	39.26983	-435.96411	64.29873	33.35364	-509.12967	-39.0785	613.38788	-158.21188	-29.25443	456.55704	-173.85583	-74.48317	287.71426	-151.52892	-79.81394	78.55899	-179.02757	-124.8479	35.22893	-227.72339	61.4224	37.245	-164.15913	-34.31935	1722.41919	-313.39923	3102.00439	1023.54163	1973.16516	3140.6521	1022.08838	2012.51599	NaN	NaN	NaN
202	2.01	-15.26589	1684.70569	-403.37036	-12.26558	1694.05176	-289.3121	-113.08724	1606.24841	-404.10602	-113.82529	1614.30859	-283.70831	-116.74348	1437.2948	-356.53369	-141.03564	1143.35156	-347.39355	29.85593	1375.54126	-345.21445	79.04765	1221.07568	-345.24261	-167.80539	1241.35034	-278.54742	-21.30272	1399.07288	-510.02304	-41.33095	1222.13745	-605.50452	-50.92495	1073.94751	-628.66656	0.5003	965.84717	-638.29468	71.31631	854.21039	-591.78162	30.95412	847.78522	-636.4538	82.94428	780.742	-625.37286	-40.59786	1400.50366	-198.7715	-92.31845	1210.00964	-83.72835	-77.23862	1086.3335	-58.09241	-29.73615	969.33203	-39.29668	39.09795	855.16113	-91.36318	19.26395	856.31219	-36.84298	53.85414	779.51416	-54.96612	44.92558	938.00616	-445.88989	33.39885	941.81824	-228.76779	-146.60258	951.99774	-405.03357	-152.95683	957.30688	-262.35339	-5.38509	606.82098	-518.1554	-26.45939	472.51855	-508.37238	-77.11318	292.88257	-530.83734	-84.92108	71.43982	-488.55014	-124.2285	39.3276	-436.0022	64.26739	33.31419	-509.14224	-39.14212	613.40747	-158.26332	-29.32266	456.58035	-173.86629	-74.49862	287.72571	-151.55408	-79.86127	78.53906	-179.02321	-124.8324	35.19086	-227.67787	61.42095	37.26526	-164.16553	-33.89534	1722.2262	-313.42175	3101.9707	1023.85034	1973.0144	3140.65088	1021.84784	2012.53625	NaN	NaN	NaN
203	2.02	-15.16261	1684.72839	-403.32755	-12.09746	1694.05774	-289.28369	-113.00647	1606.29932	-404.0668	-113.75308	1614.3291	-283.66785	-116.70324	1437.32141	-356.51996	-141.06502	1143.36084	-347.40479	29.87749	1375.49146	-345.19922	79.06046	1221.04517	-345.24539	-167.78546	1241.36682	-278.50775	-21.28821	1399.073	-509.99506	-41.37925	1222.16785	-605.48267	-51.02733	1073.97034	-628.69336	0.36169	965.85883	-638.2699	71.15443	854.18445	-591.7876	30.75602	847.80353	-636.492	82.71492	780.70416	-625.38953	-40.50726	1400.48157	-198.75975	-92.31303	1209.96814	-83.73825	-77.28886	1086.29456	-58.10893	-29.8057	969.31	-39.31233	38.95335	855.10004	-91.37219	19.16487	856.25751	-36.88034	53.79676	779.57635	-54.68364	44.8442	938.00763	-445.89532	33.35709	941.79041	-228.81288	-146.66762	952.02563	-405.05994	-153.02544	957.28668	-262.33392	-5.45595	606.82745	-518.15729	-26.50361	472.53735	-508.40768	-77.15363	292.88937	-530.85052	-84.93689	71.43547	-488.4624	-124.20535	39.28165	-435.93976	64.27012	33.30492	-509.12122	-39.16933	613.3913	-158.30231	-29.37673	456.58481	-173.87654	-74.58025	287.71045	-151.54521	-79.891	78.50802	-179.00098	-124.88051	35.27988	-227.65108	61.40323	37.2485	-164.15399	-33.76022	1722.24536	-313.36511	3102.02222	1023.95026	1973.04602	3140.59229	1021.92871	2012.52112	NaN	NaN	NaN
204	2.03	-15.02955	1684.72974	-403.27481	-12.12801	1694.09155	-289.28204	-112.92776	1606.33923	-404.03827	-113.63589	1614.39026	-283.59039	-116.64428	1437.37659	-356.46948	-141.09691	1143.40637	-347.41254	29.94876	1375.45398	-345.20187	79.03906	1221.01086	-345.29257	-167.84619	1241.41858	-278.47205	-21.2751	1399.08093	-509.97223	-41.39137	1222.19287	-605.46686	-51.12781	1073.99414	-628.70978	0.22161	965.86896	-638.2547	71.0015	854.1734	-591.75903	30.58113	847.82233	-636.50769	82.5504	780.69324	-625.38062	-40.45269	1400.4718	-198.71695	-92.31148	1209.97583	-83.73441	-77.30474	1086.2854	-58.12363	-29.86424	969.2677	-39.33297	38.84142	855.06256	-91.40837	19.01233	856.1972	-36.90554	53.83831	779.5022	-54.75478	44.78157	938.0155	-445.94897	33.29726	941.78558	-228.83119	-146.72136	952.04834	-405.06116	-153.04868	957.28693	-262.38684	-5.52102	606.83362	-518.20245	-26.52492	472.55173	-508.43704	-77.17567	292.87775	-530.85162	-84.92619	71.5055	-488.5238	-124.16575	39.24237	-435.95456	64.29013	33.35565	-509.13498	-39.24646	613.37354	-158.31947	-29.40878	456.57349	-173.83226	-74.5788	287.73969	-151.55324	-79.89101	78.53729	-179.03755	-124.8316	35.26997	-227.68776	61.40485	37.23418	-164.16315	-33.60453	1722.2887	-313.33359	3101.79321	1023.27643	1973.07349	3140.65674	1021.93024	2012.48975	NaN	NaN	NaN
205	2.04	-14.88813	1684.70947	-403.26721	-11.8261	1694.03894	-289.21982	-112.80304	1606.38245	-403.98047	-113.50544	1614.41516	-283.5575	-116.57434	1437.4115	-356.49902	-141.13162	1143.43237	-347.42435	30.02398	1375.3999	-345.18451	79.00816	1220.96338	-345.3031	-167.84027	1241.45166	-278.45755	-21.22758	1399.07361	-509.96494	-41.40981	1222.20105	-605.47986	-51.24471	1073.98877	-628.6745	0.07376	965.8681	-638.24731	70.81641	854.14227	-591.73889	30.38902	847.80267	-636.49658	82.31565	780.65497	-625.35895	-40.41089	1400.43823	-198.70296	-92.32323	1209.96631	-83.73964	-77.35397	1086.27588	-58.15281	-29.94385	969.2345	-39.34526	38.72729	854.98547	-91.41846	18.93433	856.13934	-36.90936	53.7303	779.41431	-54.74453	44.70728	938.00092	-445.94778	33.2455	941.76685	-228.84875	-146.7836	952.04773	-405.08414	-152.95712	957.33575	-262.29575	-5.57612	606.85602	-518.22296	-26.56038	472.53128	-508.45642	-77.17869	292.86346	-530.85254	-84.90151	71.45058	-488.53574	-124.15942	39.27557	-436.00406	64.27603	33.35984	-509.14041	-39.28539	613.39398	-158.34662	-29.44558	456.5784	-173.89479	-74.61729	287.73389	-151.51492	-79.85136	78.54462	-179.01228	-124.81928	35.23862	-227.67181	61.39986	37.23815	-164.1678	-33.60245	1722.41235	-313.25861	3101.93604	1023.82196	1973.05383	3140.62646	1021.9483	2012.46375	NaN	NaN	NaN
206	2.05	-14.78744	1684.71326	-403.26428	-11.65595	1694.03613	-289.19928	-112.71717	1606.42639	-403.96564	-113.40381	1614.46387	-283.54419	-116.49419	1437.42737	-356.41791	-141.13501	1143.46497	-347.41641	30.05854	1375.3877	-345.19711	78.9895	1220.93091	-345.29883	-167.8748	1241.48145	-278.44101	-21.20616	1399.08948	-509.9574	-41.45135	1222.20349	-605.4552	-51.32431	1073.97766	-628.66327	-0.08339	965.84564	-638.23242	70.65826	854.1593	-591.64856	30.17826	847.79321	-636.46161	82.09399	780.62402	-625.33832	-40.36273	1400.40283	-198.68661	-92.33587	1209.91895	-83.74278	-77.3851	1086.21448	-58.14367	-30.02519	969.18738	-39.3436	38.62055	854.90509	-91.43879	18.82652	856.08197	-36.93717	53.60654	779.34784	-54.75093	44.64557	938.0174	-445.98761	33.19908	941.79187	-228.87888	-146.86464	952.05487	-405.10321	-153.00066	957.32208	-262.31976	-5.65161	606.85388	-518.26434	-26.61374	472.53598	-508.47305	-77.21901	292.88025	-530.87756	-84.9289	71.46499	-488.49664	-124.17059	39.26524	-435.96295	64.29367	33.32362	-509.11432	-39.29021	613.42804	-158.37173	-29.41586	456.56516	-173.8902	-74.58916	287.74811	-151.5547	-79.8808	78.5696	-179.02733	-124.82423	35.24979	-227.70947	61.41893	37.25452	-164.16486	-33.41687	1722.37122	-313.25656	3102.02075	1023.73212	1973.03943	3140.56763	1021.96692	2012.5127	NaN	NaN	NaN
207	2.06	-14.65743	1684.73535	-403.23608	-11.51466	1694.05566	-289.16556	-112.59177	1606.46863	-403.91275	-113.28699	1614.51746	-283.48694	-116.45134	1437.46545	-356.41983	-141.17441	1143.52136	-347.37372	30.10876	1375.36816	-345.19955	78.96534	1220.89368	-345.33698	-167.87807	1241.53735	-278.44235	-21.18369	1399.10413	-509.97601	-41.48794	1222.23413	-605.44049	-51.43936	1074.00549	-628.67346	-0.21118	965.85925	-638.21808	70.44988	854.13226	-591.66376	29.98329	847.79034	-636.42889	81.86961	780.61969	-625.31317	-40.29399	1400.40344	-198.66698	-92.34875	1209.89587	-83.74726	-77.37851	1086.19897	-58.16215	-29.99363	969.18164	-39.24754	38.5397	854.83234	-91.44624	18.74862	856.01276	-36.93382	53.26488	779.26093	-54.70366	44.57375	937.99786	-445.99246	33.14944	941.80334	-228.8912	-146.92525	952.07922	-405.10645	-153.06035	957.32953	-262.36298	-5.72855	606.87134	-518.25403	-26.65363	472.53998	-508.47708	-77.22971	292.8736	-530.875	-84.93369	71.44278	-488.51923	-124.17736	39.28413	-435.95898	64.29121	33.32	-509.13675	-39.28812	613.40222	-158.36809	-29.44205	456.59375	-173.9577	-74.58495	287.73428	-151.53006	-79.87444	78.50758	-179.02924	-124.78466	35.24067	-227.68916	61.42183	37.24849	-164.18137	-33.25723	1722.41895	-313.25021	3102.02368	1023.80389	1973.10156	3140.73608	1022.06079	2012.55078	NaN	NaN	NaN
208	2.07	-14.53063	1684.73633	-403.18869	-11.37953	1694.03491	-289.14572	-112.4725	1606.50269	-403.90054	-113.20244	1614.57568	-283.44064	-116.40001	1437.50122	-356.42413	-141.21654	1143.54822	-347.37021	30.16109	1375.3302	-345.19049	78.94209	1220.84888	-345.36334	-167.88539	1241.5863	-278.44495	-21.15979	1399.11658	-509.95908	-41.53051	1222.25293	-605.42633	-51.57004	1074.04333	-628.69757	-0.34671	965.86981	-638.20093	70.26154	854.09106	-591.60529	29.80214	847.7865	-636.448	81.64748	780.57703	-625.27594	-40.22802	1400.40771	-198.64622	-92.31594	1209.91162	-83.78146	-77.38261	1086.20032	-58.17701	-30.05486	969.13867	-39.26462	38.46112	854.79169	-91.44677	18.62125	855.98694	-36.93018	53.40145	779.24182	-54.72986	44.51669	938.00275	-446.01602	33.08625	941.80066	-228.93343	-146.97932	952.08472	-405.13391	-153.15225	957.34186	-262.35989	-5.77083	606.87799	-518.30084	-26.68837	472.55215	-508.4996	-77.24627	292.86951	-530.87103	-84.89883	71.44234	-488.53928	-124.14436	39.25757	-435.99588	64.25632	33.32388	-509.1138	-39.32148	613.39136	-158.40393	-29.43738	456.57605	-173.92006	-74.5807	287.74399	-151.54355	-79.8737	78.52573	-179.03603	-124.79997	35.2692	-227.69771	61.42496	37.23323	-164.19821	-33.08997	1722.42932	-313.23325	3101.90186	1023.72937	1972.98682	3140.677	1021.96252	2012.53235	NaN	NaN	NaN
